<?xml version="1.0" encoding="UTF-8"?><svg id="Layer_1" xmlns="http://www.w3.org/2000/svg" viewBox="0 0 1024 1024"><defs><style>.cls-1{fill:#1c85ec;}.cls-2{fill:#f1fefe;}</style></defs><path class="cls-2" d="M0,0h1024v1024H0V0ZM683.11,291.91c7.24,0,9.76-7.19,9.45-11.62-.53-7.53.07-13.81,2.09-20.56,4.6-15.38,18.55-25.19,34.2-24.12,14.77,1.01,27.28,11.09,30.77,26.55,2.73,12.09-3.83,30.1,11.32,29.9l61.16-.84c18.67-.26,26.13-43.81,26.91-65.84.5-14.32-3.93-27.8-15.27-37.04-34.55-28.15-85.84-40.28-130.18-46.94-27.57-4.14-51.73-13.77-76.38-26.26l-43.37-21.97c-24.78-10.59-50.12-15.9-76.96-17.86-60.6-4.42-127.25,3.98-183.7,26.8l-64.46,26.05c-18.01,7.28-36.95,8.69-56.35,9.71-32.85,1.74-18.4,34.42-27.86,55.69-6.38,14.34-7.3,29.56-3.99,44.98,2.09,9.73,4.05,19.48,9.34,27.96,13.1,21.02,47.75,26.04,73.16,25.62,4.77-.08,8.5-.8,11.46-4.05,6.2-6.81-1.03-19.75,7.27-34.54,5.58-9.95,14.96-16.4,24.93-17.68,11.73-1.51,22.69,2.81,30.02,11.7,7.36,8.92,9.48,19.76,8.13,31.39-.55,4.72,2.75,12.93,9.06,12.93l329.24.04ZM248.97,505.99c22.91-.07,39.43-20.08,39.32-41.87l-.46-93.13c-.1-19.84-16.79-37.71-36.8-37.74l-102.67-.19c-17.03-.03-34.46,17.42-37.12,35.74l.9,99.97c.17,19.33,16.86,33.67,35,37.53l101.83-.3ZM500.46,466.21l.2-93c.04-20.12-15.24-39.94-36.31-39.9l-105.57.2c-17.9.03-34.09,18.04-34.11,35.62l-.08,99.08c-.01,18.87,16.99,37.43,35.91,37.53l98.52.55c22.04.12,41.38-17.18,41.43-40.08ZM712.84,468.47l-.04-98.49c0-18.75-16.4-36.63-34.97-36.62l-105.7.06c-18.66.01-35,17.67-35.06,36.28l-.34,97.08c-.07,19.95,16.84,38.98,36.89,39.03l100.11.25c20.02.05,39.12-16.32,39.11-37.6ZM885.13,506.13c22.21.13,40.3-17.91,40.25-39.6l-.24-95.57c-.05-19.66-16.88-37.72-36.73-37.68l-104.31.25c-17.57.04-34.38,18.15-34.37,35.56l.05,100.53c0,17.59,17.33,35.82,34.87,35.92l100.48.6ZM287.89,674.67l.03-98.62c0-20.51-17.93-37.23-38.22-37.16l-101.32.32c-23.42.07-37.03,22.52-36.94,44.2l.34,87.84c.09,22.39,16.95,40.13,39.36,40.12h98.33c21.1-.02,38.41-19.67,38.42-36.7ZM466.39,711.26c20.91-3.19,34.35-20.35,34.36-40.65l.05-90.65c.01-21.36-15.89-40.98-37.83-41l-100.17-.08c-19.46-.01-37.83,15.99-37.94,36l-.59,100.79c3.48,18.72,16.35,35.07,36.04,35.15l106.07.42ZM676.29,711.07c19.17-.12,36.18-16.71,36.31-36.16l.63-94.25c.16-23.35-17.74-41.99-40.89-41.9l-98.64.38c-21.34.08-37.12,20.18-37.06,40.95l.31,92.77c.08,24.14,20.44,38.93,43.2,38.79l96.13-.58ZM925.57,671.99l-.6-96.74c-.13-21.2-18.99-36.5-39.18-36.46l-98.99.19c-19.5.04-37.15,17.16-37.16,36.92v98.74c0,19.43,15.72,36.39,34.98,36.46l103.55.36c19.83.07,37.52-20.06,37.39-39.47ZM288.09,878.74l.21-98.53c-3.34-19.75-18.14-35.84-38.73-35.77l-100.99.34c-19.69.07-36.18,17.03-36.21,36.57l-.13,97.34c-.03,19.79,16.19,38.17,35.97,38.22l102.74.25c18.82.05,37.1-18.07,37.14-38.43ZM462.3,917.02c22.73,0,38.3-19.49,38.27-41.03l-.13-93.34c-.03-22.15-19.06-38.3-40.68-38.3h-95.48c-20.93,0-39.92,17.02-39.84,39.65l.36,95.76c.08,20.58,17.79,37.3,38.11,37.29l99.37-.04ZM701.43,905.7c5.95-6.49,11.51-15.75,11.55-24.44l.42-102.13c-3.72-18.86-17.3-34.63-37.11-34.63l-101.35-.04c-20.86,0-38.17,17.28-38.04,38.23l.58,99.94c.1,17.45,17.49,33.98,34.65,34.08l100.21.6c10.59.06,21.53-3.35,29.1-11.6ZM925.97,856.1l.22-33.05-.17-10.12c-.15-9.22.12-18.04.17-26.8.13-24.64-18.06-42.02-41.87-42.06l-90.77-.14c-21.88-.03-43.82,14-43.81,37.45l.04,100.08c0,19.14,18.26,35.52,37,35.55l98.83.18c19.23.04,34.68-12.43,39.04-31.41l1.31-29.68Z"/><path class="cls-1" d="M683.11,291.91l-329.24-.04c-6.31,0-9.61-8.21-9.06-12.93,1.35-11.63-.77-22.46-8.13-31.39-7.33-8.89-18.29-13.22-30.02-11.7-9.97,1.29-19.35,7.73-24.93,17.68-8.3,14.79-1.07,27.73-7.27,34.54-2.95,3.24-6.69,3.97-11.46,4.05-25.41.42-60.05-4.6-73.16-25.62-5.29-8.48-7.25-18.23-9.34-27.96-3.32-15.42-2.39-30.64,3.99-44.98,9.46-21.26-4.99-53.95,27.86-55.69,19.39-1.02,38.34-2.44,56.35-9.71l64.46-26.05c56.45-22.82,123.1-31.22,183.7-26.8,26.84,1.96,52.18,7.27,76.96,17.86l43.37,21.97c24.65,12.49,48.81,22.12,76.38,26.26,44.34,6.65,95.63,18.79,130.18,46.94,11.34,9.24,15.78,22.72,15.27,37.04-.78,22.03-8.24,65.59-26.91,65.84l-61.16.84c-15.15.21-8.59-17.81-11.32-29.9-3.49-15.46-16-25.54-30.77-26.55-15.65-1.07-29.59,8.74-34.2,24.12-2.02,6.75-2.62,13.03-2.09,20.56.31,4.43-2.2,11.62-9.45,11.62ZM216.99,257.09c9.89,5.53,20.47,7.32,31.62,8.55,1.67-13.98,6.05-26.43,15.29-36.55,22.89-26.85,62.28-30.29,88.6-6.52,12.91,11.65,19.55,27.68,21.13,45.42l290.74.06c1.42-19.41,9.67-35.49,24.37-47.86,18.87-15.88,46.08-17.83,67.8-5.95,19.83,11.8,31.03,31.49,32.19,54.03l37.55-.61c8.68-24.23,17.27-51.86-3.22-66.55-28.61-20.51-63.61-28.99-97.96-35.05l-31.85-5.62c-23.08-4.07-43.88-12.8-64.7-23.31l-34.59-17.46c-64.46-32.54-184.12-22.6-252.32,7.33-.83,4.38,2.78,7.29,6.04,9.58,17.67,12.43,37.11,19.05,58.79,20.11l110.31,5.38,66.22,3.65,27.83,1.4c5.59.28,10.98.75,16.23,1.83l-40.12,1.39-79.13,3.65-36.39,1.19-44.4,1.28c-6.66.19-12.53.37-19.09.09-39.25-1.65-64.95-17.46-90.58-20.32-34.62-3.87-66.51,10.57-103.35,8.86,1.67,16.1-1.73,30.32-8.03,44.47-6.32,14.21,1.64,42.27,11.02,47.52Z"/><path class="cls-1" d="M701.43,905.7c-7.57,8.25-18.51,11.67-29.1,11.6l-100.21-.6c-17.16-.1-34.55-16.64-34.65-34.08l-.58-99.94c-.12-20.95,17.18-38.24,38.04-38.23l101.35.04c19.82,0,33.39,15.78,37.11,34.63l-.42,102.13c-.04,8.7-5.59,17.96-11.55,24.44ZM676.86,902.19c14.07,0,21.36-14.14,21.31-26.13l-.4-93.33c-.06-13.38-10.16-23.34-23.44-23.34h-98.49c-13.2.02-23.73,10.04-23.76,23.37l-.24,94.69c-.03,11.14,8.41,24.7,20.61,24.7l104.42.04Z"/><path class="cls-1" d="M925.97,856.1l-1.31,29.68c-4.36,18.98-19.81,31.45-39.04,31.41l-98.83-.18c-18.75-.03-37-16.42-37-35.55l-.04-100.08c-.01-23.45,21.94-37.49,43.81-37.45l90.77.14c23.81.04,42,17.42,41.87,42.06-.05,8.76-.32,17.59-.17,26.8l.17,10.12-.22,33.05ZM910.47,878.06l-.43-97.1c-.05-11.62-10.48-21.23-21.66-21.24l-101.45-.14c-11.83-.02-22.38,9.76-22.38,21.83l-.03,98.61c0,11.05,9.77,22.33,21.1,22.33h102.68c12.23,0,22.22-11.96,22.17-24.28Z"/><path class="cls-1" d="M288.09,878.74c-.04,20.36-18.32,38.47-37.14,38.43l-102.74-.25c-19.78-.05-36-18.43-35.97-38.22l.13-97.34c.03-19.54,16.51-36.51,36.21-36.57l100.99-.34c20.59-.07,35.39,16.02,38.73,35.77l-.21,98.53ZM273.22,877.94l-.06-94.73c0-15.06-12.35-23.75-26.16-23.78l-93.32-.23c-14.18-.03-26.64,8.4-26.63,23.58l.05,104.99c5.08,5.81,11.58,14.39,20.1,14.42l102.49.28c12.7.03,23.54-11.28,23.54-24.54Z"/><path class="cls-1" d="M287.89,674.67c0,17.03-17.32,36.68-38.42,36.69h-98.33c-22.41.02-39.28-17.72-39.36-40.11l-.34-87.84c-.08-21.68,13.52-44.13,36.94-44.2l101.32-.32c20.29-.06,38.23,16.65,38.22,37.16l-.03,98.62ZM251.2,697.03c12.07-2.48,21.67-10.63,21.72-23.12l.39-95.06c.05-12.55-9.39-25.27-22.3-25.3l-100.02-.21c-13.38-.03-23.86,10.86-23.92,24.03l-.4,93.33c-.06,14.03,10.21,26.14,24.64,26.17l99.89.16Z"/><path class="cls-1" d="M462.3,917.02l-99.37.04c-20.33,0-38.04-16.71-38.11-37.29l-.36-95.76c-.09-22.63,18.91-39.64,39.84-39.64h95.48c21.61,0,40.64,16.13,40.68,38.29l.13,93.34c.03,21.53-15.54,41.02-38.27,41.03ZM485.4,879.38l.02-96.68c0-12.21-10.29-22.71-22.4-22.77l-98.75-.45c-12.84-.06-24.68,8.61-24.73,22.29l-.38,104.64c4.81,6.45,11.19,15.69,20.05,15.74l101.12.58c12.93.07,25.08-9.28,25.08-23.35Z"/><path class="cls-1" d="M676.29,711.07l-96.13.58c-22.76.14-43.12-14.66-43.2-38.79l-.31-92.77c-.07-20.76,15.72-40.86,37.06-40.95l98.64-.38c23.16-.09,41.05,18.54,40.89,41.9l-.63,94.25c-.13,19.45-17.14,36.04-36.31,36.16ZM675.26,696.64c12.83,0,22.88-11.8,22.87-23.72l-.03-94.82c0-13.12-10.02-24.61-23.16-24.61l-99.93-.03c-12.91,0-23.08,11.1-23.11,23.93l-.18,94.62c-.02,12.31,9.33,24.59,22.36,24.59l101.18.03Z"/><path class="cls-1" d="M712.84,468.47c0,21.28-19.09,37.65-39.11,37.6l-100.11-.25c-20.05-.05-36.96-19.08-36.89-39.03l.34-97.08c.06-18.61,16.4-36.27,35.06-36.28l105.7-.06c18.57-.01,34.96,17.88,34.97,36.62l.04,98.49ZM673,491.48c13.82.03,25.29-11.78,25.25-24.95l-.29-96.45c-.04-12.58-11.15-22.68-23.33-22.72l-96.98-.3c-11.43-.04-25.02,8.58-25.11,20.88l-.69,97.5c-.09,13.02,9.73,25.77,23.56,25.81l97.6.24Z"/><path class="cls-1" d="M925.57,671.99c.12,19.41-17.56,39.54-37.39,39.47l-103.55-.36c-19.26-.07-34.99-17.03-34.99-36.46v-98.74c0-19.76,17.66-36.88,37.16-36.92l98.99-.19c20.19-.04,39.05,15.26,39.18,36.46l.6,96.74ZM889.28,696.34c12.73-.09,21.16-12.4,21.16-23.45v-93.7c.02-12.54-8.68-25.63-22.14-25.63l-102.87-.02c-7.85,0-20.3,8.7-20.36,16.94l-.7,101.53c-.1,14.01,11.45,25.16,25.27,25.06l99.64-.72Z"/><path class="cls-1" d="M248.97,505.99l-101.83.3c-18.14-3.86-34.82-18.2-35-37.53l-.9-99.97c2.66-18.32,20.09-35.77,37.12-35.74l102.67.19c20.01.04,36.7,17.9,36.8,37.74l.46,93.13c.11,21.79-16.41,41.81-39.32,41.87ZM249.56,491.08c15.44-.07,24.08-14.4,24.03-28.36l-.39-91.94c-.06-13.58-11.86-23.71-25.03-23.67l-97.93.32c-12.47.04-23.07,10.91-23.1,23.25l-.27,94.54c-.05,17.19,13.42,26.33,29.54,26.26l93.16-.39Z"/><path class="cls-1" d="M500.46,466.21c-.05,22.9-19.39,40.21-41.43,40.08l-98.52-.55c-18.93-.11-35.93-18.67-35.91-37.53l.08-99.08c.01-17.58,16.2-35.58,34.11-35.62l105.57-.2c21.07-.04,36.35,19.78,36.31,39.9l-.2,93ZM463.11,491.62c13.09-2.78,22.44-11.86,22.41-25.02l-.18-95.84c-.03-13.65-11.87-23.73-25.08-23.67l-97.91.44c-12.72.06-22.92,11.02-22.94,23.22l-.17,94.63c-.03,13.73,11.19,25.99,25.21,26.02l98.67.22Z"/><path class="cls-1" d="M466.39,711.26l-106.07-.42c-19.69-.08-32.56-16.43-36.04-35.15l.59-100.79c.12-20.01,18.49-36.01,37.94-36l100.17.08c21.93.02,37.84,19.64,37.83,41l-.05,90.65c-.01,20.29-13.45,37.45-34.36,40.65ZM463.23,697.06c13.21-2.35,22.44-11.99,22.39-25.08l-.32-95.81c-.04-11.93-10.31-22.64-22.37-22.64h-101.36c-12.12.01-22.22,12.07-22.22,23.89l.03,95.79c0,12.78,10.95,23.6,23.72,23.63l100.12.23Z"/><path class="cls-1" d="M885.13,506.13l-100.48-.6c-17.55-.1-34.87-18.33-34.87-35.92l-.05-100.53c0-17.4,16.8-35.51,34.37-35.56l104.31-.25c19.85-.05,36.68,18.02,36.73,37.68l.24,95.57c.05,21.69-18.04,39.73-40.25,39.6ZM889.39,491.59c12.23-3.51,21.08-11.38,21.08-23.85l-.02-96.84c0-13.25-10.81-23.6-23.86-23.62l-96.87-.17c-12.37-.02-25.08,9.23-25.13,22.25l-.39,96.07c-.05,12.96,9.47,25.7,23.26,25.75l101.93.41Z"/><path class="cls-2" d="M216.99,257.09c-9.38-5.24-17.34-33.3-11.02-47.52,6.29-14.15,9.69-28.37,8.03-44.47,36.84,1.71,68.73-12.73,103.35-8.86,25.63,2.87,51.33,18.67,90.58,20.32,6.56.28,12.43.1,19.09-.09l44.4-1.28,36.39-1.19,79.13-3.65,40.12-1.39c-5.24-1.08-10.63-1.55-16.23-1.83l-27.83-1.4-66.22-3.65-110.31-5.38c-21.67-1.06-41.12-7.68-58.79-20.11-3.26-2.29-6.87-5.2-6.04-9.58,68.2-29.93,187.86-39.88,252.32-7.33l34.59,17.46c20.82,10.51,41.62,19.24,64.7,23.31l31.85,5.62c34.35,6.06,69.35,14.54,97.96,35.05,20.49,14.69,11.9,42.32,3.22,66.55l-37.55.61c-1.16-22.54-12.36-42.23-32.19-54.03-21.72-11.88-48.93-9.93-67.8,5.95-14.7,12.37-22.95,28.45-24.37,47.86l-290.74-.06c-1.58-17.74-8.23-33.77-21.13-45.42-26.32-23.77-65.71-20.33-88.6,6.52-9.25,10.11-13.63,22.56-15.29,36.55-11.15-1.22-21.73-3.02-31.62-8.55Z"/><path class="cls-2" d="M676.86,902.19l-104.42-.04c-12.2,0-20.64-13.56-20.61-24.7l.24-94.69c.03-13.32,10.56-23.35,23.76-23.35h98.49c13.27-.02,23.38,9.94,23.44,23.32l.4,93.33c.05,12-7.24,26.14-21.31,26.13ZM657.22,796.56c-2.56,3.72-3.39,5.71-6.21,7.91-5.89-4.71-12.16-6.74-19.15-8.04-1.1-.2-1.59-4.27-.75-5s2.89-.64,4.88-1.28c2.92-.94,3.17-8.24.39-8.33l-18.79-.59c-3.9-.12-5.65,1.63-5.66,4.77-.02,6.62,10.65,3.59,7.12,9.21-.81,1.3-2.38,1.5-4.3,1.98-19.72,4.98-32.5,23-31.85,42.29.66,19.54,15.19,36.46,33.29,40.01,20.22,3.96,39.83-5.53,47.56-23.81,6.37-15.06,4.76-29.98-4.35-43.36l6.69-7.24c-1.61-3.84-4.38-6.72-8.87-8.53Z"/><path class="cls-2" d="M910.47,878.06c.06,12.33-9.94,24.28-22.17,24.28h-102.68c-11.33,0-21.11-11.28-21.1-22.33l.03-98.61c0-12.07,10.55-21.85,22.38-21.83l101.45.14c11.18.02,21.61,9.63,21.66,21.24l.43,97.1ZM865.11,878.52c10.4-.01,20.26-8.39,20.3-18.55l.19-57.38c.03-9.99-8.52-18.91-18.52-18.94l-57.49-.15c-11.44-.03-20.08,9.08-20.03,20.43l.25,56.05c.05,10.72,9.32,18.62,19.75,18.6l55.56-.07Z"/><path class="cls-2" d="M273.22,877.94c0,13.26-10.84,24.57-23.54,24.54l-102.49-.28c-8.52-.02-15.02-8.6-20.1-14.42l-.05-104.99c0-15.18,12.46-23.62,26.63-23.58l93.32.23c13.81.03,26.15,8.72,26.16,23.78l.06,94.73ZM225.97,878.17c6.94-.04,11.2-5.73,11.2-11.61v-36.67c.01-6.37-4.76-9.57-10.55-11.2,1.27-12.93-2.33-26.06-13.9-32.39-9.01-4.93-19.41-3.64-27.48,1.9-11.1,7.62-11.44,18.39-11.97,31.44-6.16.28-10.33,4.91-10.35,10.98l-.09,34.79c-.02,7.12,4.79,13.07,12.3,13.03l50.83-.28Z"/><path class="cls-2" d="M251.2,697.03l-99.89-.16c-14.42-.02-24.69-12.14-24.64-26.17l.4-93.33c.06-13.17,10.54-24.05,23.92-24.03l100.02.21c12.91.03,22.35,12.75,22.3,25.3l-.39,95.06c-.05,12.48-9.65,20.64-21.72,23.12ZM217.12,637.37l-9.36,9.05-15.14-12.08-10.79-13.16c-6.14-7.49,9.81-11.94,5.94-19.23l-9.26-17.46c-1.2-2.27-3.67-3.91-5.67-3.99-5.9-.24-19.14,10.78-17.43,23.18,1.84,13.4,8.75,24.45,17.1,34.81,12.35,15.31,28.45,27.43,47.7,31.9,15.37,3.57,26.93-14.57,23.42-20.4-3.31-5.5-11-7.08-16.07-10.59-2.96-2.05-7.2-5.15-10.43-2.03Z"/><path class="cls-2" d="M485.4,879.38c0,14.07-12.15,23.42-25.08,23.35l-101.12-.58c-8.86-.05-15.24-9.29-20.05-15.74l.38-104.64c.05-13.67,11.9-22.35,24.73-22.29l98.75.45c12.11.06,22.4,10.56,22.4,22.77l-.02,96.68ZM394.39,799.23c1.06-5.38.78-10.22-.11-14.66-.51-2.54-3.32-2.89-4.95-2.56-4.55.92-4.91,10.93-3.07,17.58.85,3.08,7.45,3.09,8.13-.36ZM439.46,796.74l-.12-10.07c-.03-2.84-1.89-4.04-3.73-4.43-1.44-.3-3.96-.11-4.4,1.88-1.97,8.88-1.12,18.3,4.42,17.61,1.89-.23,3.87-1.71,3.84-4.99ZM459.01,802.23c.02-4.6-2.99-7.6-5.04-8.95-2.51-1.64-8.48-2.99-10.01-.36-.25,5.41-.57,10.4-5,11.87-3.59,1.19-10.44,1.61-11.15-2.64l-1.75-10.55-27.81.72c.67,5.13-.11,9.72-2.66,11.65-3.09,2.34-7.86,1.86-10.71.12-3.45-2.12-3.11-6.61-3.53-11.04-1.81-3.04-7.81-1.32-10.3.81-2.27,1.95-4.59,4.76-4.59,8.79v65.45c0,4.27,3.77,10.61,8.49,10.63l72.1.39c5.68.03,11.61-3.84,11.64-10.15l.33-66.74Z"/><path class="cls-2" d="M675.26,696.64l-101.18-.03c-13.02,0-22.38-12.28-22.36-24.59l.18-94.62c.02-12.83,10.2-23.94,23.11-23.93l99.93.03c13.14,0,23.16,11.49,23.16,24.61l.03,94.82c0,11.92-10.05,23.72-22.87,23.72ZM635.76,674.85c12.75-.19,21.6-10.11,23.08-21.06,2.77-20.46-18.62-27.09-19.6-28.12-.61-.64-.79-3.69.02-3.91,5.57-1.5,10.22,1.37,14.91,4.36,4.94,3.15,12.9,4.54,17.05-.6,8.19-10.14,3.11-25.5-7.96-31.08-14.52-7.33-30.45-.71-35.69,14.46-.58,1.69-4.53,2.43-5.11,1.19-1.58-4.92.51-9.58,3.62-13.74,3.92-5.25,4.99-14.31-.96-18.43-7.83-5.41-18.11-2.81-24.78,2.6-6.91,5.6-10.68,14.11-8.21,23.63,3.83,14.78,18.35,17.49,19.83,20.71.42.91.15,2.55-.86,2.73-11.23,2.04-19.09-11.95-30.02-5.13-2.8,1.75-5.13,5.68-5.58,10.29-1,10.34,5.7,19.78,13.88,23.25,10.25,4.35,20.33,1.42,27.52-6s5.84-14.16,10.67-12.61c.99.32,1.61,2.37,1.48,3.96-.76,9.14-11.3,16.62-5.76,26.86,1.88,3.47,6.39,6.73,12.5,6.64Z"/><path class="cls-2" d="M673,491.48l-97.6-.24c-13.83-.03-23.65-12.79-23.56-25.81l.69-97.5c.09-12.3,13.68-20.91,25.11-20.88l96.98.3c12.18.04,23.3,10.14,23.33,22.72l.29,96.45c.04,13.18-11.43,24.99-25.25,24.95ZM612.52,403.72l41.17-8.24v32.88c-9.88-1.11-20.95,3.03-22.52,12.91s7.87,13.81,15.59,13.53c10.4-.38,16.26-6.43,16.28-16.41l.07-61.02c0-2.38-1.52-4.12-2.81-4.76-1.52-.75-2.95-.44-4.83-.05l-44.25,9c-4.61.94-8.02,4.24-8.02,9.2l-.03,49.23c-9.66-1.82-19.54,1.83-22.35,11.06-2.49,8.2,4.99,14.22,12.67,14.67,10.5.63,18.76-5.7,18.81-16.36l.22-45.63Z"/><path class="cls-2" d="M889.28,696.34l-99.64.72c-13.82.1-25.37-11.06-25.27-25.06l.7-101.53c.06-8.23,12.52-16.94,20.36-16.94l102.87.02c13.46,0,22.16,13.09,22.16,25.63v93.7c-.01,11.05-8.44,23.36-21.17,23.45ZM840.45,572.89c-1.04-2.38-6-2.09-6.44.45-.69,4.02-.55,7.93.04,11.81.37,2.4,3.57,2.66,4.87,1.98,3.21-1.67,3.27-10.22,1.52-14.24ZM811.7,590.6l-5.16-4.89c-1.63-1.54-4.05-.73-4.87.37-1.98,2.67,2.98,8.23,8.05,11.49,1.87,1.2,4.31-.42,4.53-2.2.16-1.34-.73-3.05-2.55-4.77ZM866.92,596.77l5.72-5.77c1.92-1.93,1.38-3.97-.12-5.17-1.32-1.06-3.12-1.11-4.59.47l-6.98,7.52c-1.28,1.38.53,3.36,1.57,3.73s2.98.66,4.4-.78ZM851.6,656.02c-.09-9.45,4.88-14.58,9.2-20.73,8.73-12.43,4.38-28.17-6.72-36.56s-26.74-7.05-36.51,3.23c-9.22,9.7-10.45,25.84-1.27,36.66,4.39,5.17,6.75,10.47,7.59,17.55l27.71-.15ZM802.84,623.12c2.27-1.26,1.19-5.48-1.04-5.91-3.8-.73-7.5-.66-11.37-.19-2.36.29-2.98,3.07-2.14,4.87,1.41,3,11.35,3,14.54,1.23ZM882.99,624.04c2.6,0,4.08-1.42,4.07-3.38-.01-3.9-6.15-4.7-13.34-3.42-2.48.44-3.26,2.73-2.55,4.58.47,1.23,1.59,2.23,3.77,2.23l8.05-.02ZM812.25,643.26c-2.7-2.15-7.45,1.54-11.48,6.6-1.25,1.57-.55,3.95.39,4.71,4.03,3.29,15.12-8.1,11.09-11.31ZM874.53,653.64c2.5-3.78-8.01-11.54-10.77-10.83-1.09.28-2,1.81-1.89,3.16.28,3.27,9.45,12.53,12.66,7.67ZM847.8,667.13c3.18.04,3.96-3.21,3.14-4.99-.5-1.08-1.88-2.3-3.96-2.3l-18.68.06c-2.29,0-3.49,1.24-4.11,2.22-.85,1.34-.44,4.69,1.36,4.71l22.26.3ZM845.95,670.73l-17.39.05c.65,5.62,5.1,6.84,8.51,6.97,5.04.21,9.1-1.85,8.88-7.02Z"/><path class="cls-2" d="M249.56,491.08l-93.16.39c-16.12.07-29.59-9.07-29.54-26.26l.27-94.54c.04-12.34,10.63-23.21,23.1-23.25l97.93-.32c13.17-.04,24.97,10.09,25.03,23.67l.39,91.94c.06,13.96-8.59,28.29-24.03,28.36ZM253.58,419.67c0-29.48-23.9-53.38-53.38-53.38s-53.38,23.9-53.38,53.38,23.9,53.38,53.38,53.38,53.38-23.9,53.38-53.38Z"/><path class="cls-2" d="M463.11,491.62l-98.67-.22c-14.02-.03-25.23-12.29-25.21-26.02l.17-94.63c.02-12.2,10.22-23.16,22.94-23.22l97.91-.44c13.21-.06,25.05,10.02,25.08,23.67l.18,95.84c.02,13.16-9.32,22.23-22.41,25.02ZM428.19,452.54c4.74-1.35,9.23,5.87,12.51,5.43,2.52-.34,12.11-9.71,9.14-14.06-2.17-3.18-4.79-5.83-3.55-9.32,2.75-7.75,10.73-3.97,13.17-6.81,2.03-2.36,2.65-16.41-1.81-17.07-4.8-.71-8.52-.02-10.6-4.77-3.67-8.36,8.32-12.01,2.29-17.63l-8.3-7.74c-2.64-2.46-7.87,7.6-13.78,5.18-7.64-3.13-3.68-12.49-7.28-13.35-5-1.19-10.32-.96-15.26.1-3.07,5.4.09,10.79-7.09,13.53-5.47,2.09-10.16-7.9-14.12-4.41-3.3,2.91-6.84,5.9-9.06,9.45s7.56,7.58,3.69,15.31c-2.6,5.2-8.46,2.66-12.74,5.36-1.56,4.73-1.35,10.4.13,15.26,3.93,3.43,10.68.67,12.94,6.28,2.63,6.53-5.47,10-3.98,14.71.87,2.75,7.01,9.04,9.32,9.5,5.46,1.1,8.79-7.67,14.85-4.54,6.34,3.27,3.04,11.67,6.45,13.59,2.9,1.64,12.56,1.84,15.2-.51,3.02-2.69.21-11.29,7.9-13.49Z"/><path class="cls-2" d="M463.23,697.06l-100.12-.23c-12.76-.03-23.71-10.85-23.72-23.63l-.03-95.79c0-11.83,10.1-23.88,22.22-23.88h101.36c12.06-.01,22.33,10.7,22.37,22.63l.32,95.81c.04,13.1-9.19,22.73-22.39,25.08ZM410.17,655.03l34.21-.5c6.59-.1,14.38-4.54,14.39-11.88l.11-47.97c.01-6.21-5.65-11.93-12-11.92l-69.16.13c-8.23.01-11.49,8.73-11.48,15.69l.02,43.59c0,9.1,9.04,13.74,18.17,12.08l.93,19.04,24.82-18.26Z"/><path class="cls-2" d="M889.39,491.59l-101.93-.41c-13.79-.06-23.31-12.79-23.26-25.75l.39-96.07c.05-13.02,12.76-22.27,25.13-22.25l96.87.17c13.04.02,23.85,10.37,23.86,23.62l.02,96.84c0,12.47-8.85,20.34-21.08,23.85ZM867.33,378.24c-1.89-1.74-3.98-1.22-5.17.25s-.97,3.88,1.12,5.26c10.04,6.62-2.2,19.8,12.44,24.98,2.28,11.64,1.54,24.86.82,36.61-.15,2.49-4.47,2.82-5.77,2.12-1.11-.6-3.11-1.82-3.14-4.06l-.3-22.14c-.09-6.68-5.68-10.51-13.12-10.2l-.21-28.43c-.05-6.24-3.13-10.96-9.73-10.93l-37.3.18c-5.39.03-8.54,4.23-8.56,9.42l-.23,76.84c-3.89-.25-6.45.88-6.95,2.74s-.57,4.43.79,6.53l67.35-.11c1.77-1.05,1.83-5.92.46-7.26-1-.99-2.95-1.84-5.85-2.23l.02-39.09c4.08-.87,6.29,1.04,6.3,3.9l.1,19.98c.04,7.27,6.19,11.93,12.41,11.59,6.93-.37,11.88-5.44,11.83-12.81l-.33-47.44-16.96-15.69Z"/><path class="cls-1" d="M657.22,796.56c4.49,1.81,7.26,4.7,8.87,8.53l-6.69,7.24c9.12,13.38,10.72,28.29,4.35,43.36-7.73,18.28-27.34,27.77-47.56,23.81-18.1-3.54-32.63-20.47-33.29-40.01-.65-19.29,12.13-37.31,31.85-42.29,1.92-.48,3.49-.69,4.3-1.98,3.52-5.62-7.15-2.59-7.12-9.21,0-3.14,1.76-4.89,5.66-4.77l18.79.59c2.78.09,2.52,7.39-.39,8.33-1.99.64-4.04.55-4.88,1.28s-.35,4.8.75,5c6.98,1.3,13.26,3.33,19.15,8.04,2.82-2.21,3.65-4.19,6.21-7.91ZM658.09,838.07c0-18.11-14.68-32.78-32.78-32.78s-32.78,14.68-32.78,32.78,14.68,32.78,32.78,32.78,32.78-14.68,32.78-32.78Z"/><path class="cls-1" d="M865.11,878.52l-55.56.07c-10.43.01-19.7-7.88-19.75-18.6l-.25-56.05c-.05-11.36,8.59-20.46,20.03-20.43l57.49.15c10,.03,18.55,8.95,18.52,18.94l-.19,57.38c-.03,10.16-9.89,18.54-20.3,18.55ZM846.78,846.44c-.29-3.31-2-6.82-3.97-7.38l-13.67-.79,16.57-30.18c1.39-2.53.72-5-1.53-5.93s-4.65-.05-5.53,2.9c-.24.8-1.19,1.91-1.73,1.85s-1.2-1.55-1.41-2.22c-.87-2.83-3.58-3.51-5.77-2.56-2.07.9-2.81,3.24-1.45,5.87l3.97,7.71-12.7,22.17c-6.12,1.97-11.66-.98-13.9,2.95-.7,1.22-.33,5.27,1.72,5.28l39.39.33ZM869.4,843.12c.34-1.6,0-4.24-2.54-4.32l-11.72-.36-11.21-19.99c-2.17,1.66-4.73,6.27-3.12,9.21l18.1,33.01c2.59.16,4.98-1.49,5.34-3.01.99-4.2-3.76-8.62-3.6-10.46s7.61,1.32,8.76-4.09ZM819.58,850.52c-1.37-1.16-3.86-1.46-5.22-1.28-2.5.33-5.3,7.28-3.94,9.38,1.03,1.58,3.36,1.75,4.91,1.13,2.31-.91,6.13-7.64,4.25-9.24Z"/><path class="cls-1" d="M225.97,878.17l-50.83.28c-7.51.04-12.32-5.92-12.3-13.03l.09-34.79c.02-6.06,4.18-10.7,10.35-10.98.53-13.05.87-23.82,11.97-31.44,8.08-5.54,18.47-6.83,27.48-1.9,11.57,6.32,15.17,19.46,13.9,32.39,5.79,1.63,10.56,4.83,10.56,11.2v36.67c-.01,5.87-4.27,11.57-11.21,11.61ZM214.74,818.65c.47-5.45.64-9.04-.34-12.83-2.06-8-9.74-12.34-17.41-11-9.32,1.62-13.94,12.24-11.22,23.88l28.97-.04ZM204.21,859.86c-.9-7,1.6-10.23,3.18-14.98,1.85-5.54-3.67-9.08-8.84-8.5-3.36.38-8.71,5.65-5.86,9.7,3.3,4.7,3.88,8.03,3.61,14.29-.13,2.83,8.37,3.04,7.91-.5Z"/><path class="cls-1" d="M217.12,637.37c3.23-3.13,7.46-.02,10.43,2.03,5.07,3.5,12.76,5.09,16.07,10.59,3.51,5.83-8.05,23.98-23.42,20.4-19.25-4.48-35.35-16.59-47.7-31.9-8.35-10.36-15.25-21.41-17.1-34.81-1.71-12.4,11.54-23.41,17.43-23.18,2,.08,4.47,1.73,5.67,3.99l9.26,17.46c3.87,7.3-12.08,11.75-5.94,19.23l10.79,13.16,15.14,12.08,9.36-9.05Z"/><path class="cls-1" d="M459.01,802.23l-.33,66.74c-.03,6.31-5.96,10.18-11.64,10.15l-72.1-.39c-4.73-.03-8.5-6.36-8.5-10.63v-65.45c0-4.03,2.33-6.85,4.6-8.79,2.49-2.13,8.49-3.84,10.3-.81.41,4.43.08,8.92,3.53,11.04,2.85,1.75,7.62,2.22,10.71-.12,2.55-1.93,3.33-6.52,2.66-11.65l27.81-.72,1.75,10.55c.71,4.26,7.56,3.83,11.15,2.64,4.43-1.47,4.75-6.46,5-11.87,1.53-2.63,7.5-1.28,10.01.36,2.06,1.35,5.07,4.35,5.04,8.95ZM374.94,816.07l-.02,54.41,75.23.03.02-54.41-75.23-.03Z"/><path class="cls-1" d="M394.39,799.23c-.68,3.45-7.27,3.45-8.13.36-1.84-6.66-1.48-16.66,3.07-17.58,1.63-.33,4.45.02,4.95,2.56.88,4.44,1.17,9.28.11,14.66Z"/><path class="cls-1" d="M439.46,796.74c.04,3.28-1.95,4.76-3.84,4.99-5.54.68-6.39-8.73-4.42-17.61.44-1.99,2.96-2.18,4.4-1.88,1.84.38,3.7,1.59,3.73,4.43l.12,10.07Z"/><path class="cls-1" d="M635.76,674.85c-6.11.09-10.62-3.17-12.5-6.64-5.54-10.24,5-17.72,5.76-26.86.13-1.58-.48-3.64-1.48-3.96-4.83-1.55-3.62,5.33-10.67,12.61s-17.26,10.35-27.52,6c-8.17-3.46-14.87-12.91-13.88-23.25.45-4.61,2.78-8.55,5.58-10.29,10.93-6.82,18.79,7.17,30.02,5.13,1.01-.18,1.28-1.83.86-2.73-1.48-3.22-16-5.94-19.83-20.71-2.46-9.51,1.3-18.02,8.21-23.63,6.67-5.41,16.95-8.01,24.78-2.6,5.95,4.11,4.88,13.18.96,18.43-3.11,4.17-5.2,8.83-3.62,13.74.58,1.24,4.52.5,5.11-1.19,5.24-15.17,21.17-21.79,35.69-14.46,11.07,5.59,16.15,20.95,7.96,31.08-4.15,5.14-12.11,3.75-17.05.6s-9.35-5.86-14.91-4.36c-.8.22-.62,3.27-.02,3.91.98,1.03,22.37,7.66,19.6,28.12-1.48,10.94-10.33,20.87-23.08,21.06ZM631.89,624.19c0-3.67-2.98-6.65-6.65-6.65s-6.65,2.98-6.65,6.65,2.98,6.65,6.65,6.65,6.65-2.98,6.65-6.65Z"/><path class="cls-1" d="M612.52,403.72l-.22,45.63c-.05,10.65-8.31,16.98-18.81,16.36-7.68-.46-15.16-6.48-12.67-14.67,2.8-9.24,12.69-12.88,22.35-11.06l.03-49.23c0-4.95,3.41-8.26,8.02-9.2l44.25-9c1.88-.38,3.32-.7,4.83.05,1.3.64,2.81,2.38,2.81,4.76l-.07,61.02c-.01,9.98-5.87,16.03-16.28,16.41-7.72.28-17.08-4.16-15.59-13.53,1.57-9.88,12.63-14.02,22.51-12.91v-32.88s-41.17,8.24-41.17,8.24Z"/><path class="cls-1" d="M851.6,656.02l-27.71.15c-.85-7.08-3.2-12.38-7.59-17.55-9.18-10.82-7.95-26.96,1.27-36.66,9.76-10.28,25.21-11.77,36.51-3.23s15.45,24.12,6.72,36.56c-4.32,6.16-9.3,11.29-9.2,20.73ZM836.35,606.74c1.55-.13,1.73-2.39,1.31-3.26-.23-.48-.66-1.57-1.76-1.52-13.67.64-19.72,16.4-16.1,19,.64.46,2.54.25,3.07-.34,1.01-1.16.54-12.76,13.48-13.88Z"/><path class="cls-1" d="M847.8,667.13l-22.26-.3c-1.81-.02-2.21-3.38-1.36-4.71.62-.98,1.83-2.21,4.11-2.22l18.68-.06c2.08,0,3.46,1.21,3.96,2.3.82,1.78.05,5.03-3.14,4.99Z"/><path class="cls-1" d="M840.45,572.89c1.75,4.02,1.68,12.57-1.52,14.24-1.3.68-4.5.42-4.87-1.98-.6-3.88-.73-7.79-.04-11.81.44-2.54,5.4-2.83,6.44-.45Z"/><path class="cls-1" d="M802.84,623.12c-3.19,1.77-13.13,1.78-14.54-1.23-.84-1.8-.22-4.59,2.14-4.87,3.87-.47,7.56-.54,11.37.19,2.22.43,3.3,4.65,1.04,5.91Z"/><path class="cls-1" d="M812.25,643.26c4.03,3.21-7.05,14.6-11.09,11.31-.94-.77-1.65-3.14-.39-4.71,4.03-5.06,8.79-8.75,11.48-6.6Z"/><path class="cls-1" d="M845.95,670.73c.23,5.17-3.84,7.23-8.88,7.02-3.41-.14-7.86-1.36-8.51-6.97l17.39-.05Z"/><path class="cls-1" d="M882.99,624.04l-8.05.02c-2.18,0-3.3-1-3.77-2.23-.71-1.85.07-4.14,2.55-4.58,7.19-1.28,13.32-.48,13.34,3.42,0,1.96-1.47,3.37-4.07,3.38Z"/><path class="cls-1" d="M874.53,653.64c-3.22,4.86-12.39-4.39-12.66-7.67-.11-1.36.8-2.88,1.89-3.16,2.76-.71,13.27,7.05,10.77,10.83Z"/><path class="cls-1" d="M866.92,596.77c-1.42,1.43-3.31,1.17-4.4.78s-2.85-2.36-1.57-3.73l6.98-7.52c1.47-1.58,3.27-1.53,4.59-.47,1.5,1.2,2.04,3.24.12,5.17l-5.72,5.77Z"/><path class="cls-1" d="M811.7,590.6c1.82,1.72,2.71,3.43,2.55,4.77-.21,1.78-2.66,3.4-4.53,2.2-5.07-3.26-10.03-8.81-8.05-11.49.82-1.11,3.24-1.91,4.87-.37l5.16,4.89Z"/><path class="cls-1" d="M253.58,419.67c0,29.48-23.9,53.38-53.38,53.38s-53.38-23.9-53.38-53.38,23.9-53.38,53.38-53.38,53.38,23.9,53.38,53.38ZM242.65,419.55c0-23.5-19.05-42.55-42.55-42.55s-42.55,19.05-42.55,42.55,19.05,42.55,42.55,42.55,42.55-19.05,42.55-42.55Z"/><path class="cls-1" d="M428.19,452.54c-7.68,2.2-4.88,10.8-7.9,13.49-2.64,2.35-12.29,2.15-15.2.51-3.41-1.92-.11-10.32-6.45-13.59-6.05-3.12-9.39,5.64-14.85,4.54-2.31-.47-8.45-6.76-9.32-9.5-1.49-4.71,6.62-8.17,3.98-14.71-2.26-5.61-9.02-2.85-12.94-6.28-1.47-4.86-1.69-10.53-.13-15.26,4.29-2.7,10.14-.16,12.74-5.36,3.87-7.73-5.82-11.92-3.69-15.31s5.75-6.54,9.06-9.45c3.96-3.49,8.65,6.49,14.12,4.41,7.18-2.74,4.02-8.14,7.09-13.53,4.94-1.06,10.26-1.29,15.26-.1,3.6.85-.36,10.22,7.28,13.35,5.91,2.42,11.14-7.65,13.78-5.18l8.3,7.74c6.02,5.62-5.96,9.27-2.29,17.63,2.08,4.75,5.8,4.06,10.6,4.77,4.47.66,3.84,14.71,1.81,17.07-2.45,2.85-10.43-.94-13.17,6.81-1.24,3.49,1.38,6.14,3.55,9.32,2.97,4.35-6.62,13.71-9.14,14.06-3.27.44-7.77-6.79-12.51-5.43ZM431.31,419.39c0-10.24-8.3-18.55-18.55-18.55s-18.55,8.3-18.55,18.55,8.3,18.55,18.55,18.55,18.55-8.3,18.55-18.55Z"/><path class="cls-1" d="M410.17,655.03l-24.82,18.26-.93-19.04c-9.13,1.65-18.16-2.98-18.17-12.08l-.02-43.59c0-6.95,3.25-15.67,11.48-15.69l69.16-.13c6.35-.01,12.02,5.7,12,11.92l-.11,47.97c-.02,7.34-7.81,11.78-14.39,11.88l-34.21.5ZM385.56,606.69v6.29s54.21.01,54.21.01v-6.29s-54.21-.01-54.21-.01ZM385.53,623.71v5.89h36.06v-5.89h-36.06Z"/><path class="cls-1" d="M867.33,378.24l16.96,15.69.33,47.44c.05,7.37-4.9,12.43-11.83,12.81-6.21.33-12.37-4.32-12.41-11.59l-.1-19.98c-.01-2.86-2.22-4.77-6.3-3.9l-.02,39.09c2.9.38,4.85,1.24,5.85,2.23,1.37,1.35,1.3,6.22-.46,7.26l-67.35.11c-1.36-2.1-1.3-4.62-.79-6.53s3.06-2.99,6.95-2.74l.23-76.84c.02-5.19,3.17-9.39,8.56-9.42l37.3-.18c6.61-.03,9.69,4.69,9.73,10.93l.21,28.43c7.44-.31,13.03,3.51,13.12,10.2l.3,22.14c.03,2.24,2.03,3.46,3.14,4.06,1.3.7,5.62.37,5.77-2.12.72-11.74,1.46-24.97-.82-36.61-14.64-5.17-2.4-18.36-12.44-24.98-2.09-1.38-2.36-3.73-1.12-5.26s3.29-2,5.17-.25ZM844.02,403.65c.19-8.75.96-15.27-.61-22.38h-35s.26,22.47.26,22.47l35.35-.09ZM823.33,449.63l12.92-21.49-8.43-.95,1.39-14.33-14.18,21.69,9.64.92-1.34,14.17Z"/><path class="cls-2" d="M658.09,838.07c0,18.11-14.68,32.78-32.78,32.78s-32.78-14.68-32.78-32.78,14.68-32.78,32.78-32.78,32.78,14.68,32.78,32.78ZM631.01,832.6c-4.61-8.38-.61-21.83-6.06-20.93-4.73.79-1.07,13.91-4.82,20.13-2.52,4.17-3.71,7.89-.64,11.27s8.15,3.42,10.84.89c3.15-2.95,2.86-7.35.67-11.35Z"/><path class="cls-2" d="M846.78,846.44l-39.39-.33c-2.05-.02-2.42-4.06-1.72-5.28,2.24-3.92,7.78-.97,13.9-2.95l12.7-22.17-3.97-7.71c-1.35-2.63-.62-4.98,1.45-5.87,2.18-.95,4.9-.27,5.77,2.56.21.67.86,2.16,1.41,2.22s1.49-1.05,1.73-1.85c.88-2.94,3.26-3.84,5.53-2.9s2.92,3.4,1.53,5.93l-16.57,30.18,13.67.79c1.97.56,3.68,4.07,3.97,7.38Z"/><path class="cls-2" d="M869.4,843.12c-1.15,5.42-8.61,2.3-8.76,4.09s4.6,6.26,3.6,10.46c-.36,1.51-2.75,3.16-5.34,3.01l-18.1-33.01c-1.61-2.94.95-7.55,3.12-9.21l11.21,19.99,11.72.36c2.54.08,2.88,2.72,2.54,4.32Z"/><path class="cls-2" d="M819.58,850.52c1.89,1.59-1.94,8.32-4.25,9.24-1.55.62-3.89.45-4.91-1.13-1.36-2.1,1.44-9.05,3.94-9.38,1.36-.18,3.85.11,5.22,1.28Z"/><path class="cls-2" d="M214.74,818.65l-28.97.04c-2.72-11.65,1.9-22.26,11.22-23.88,7.67-1.34,15.35,3.01,17.41,11,.98,3.8.81,7.38.34,12.83Z"/><path class="cls-2" d="M204.21,859.86c.45,3.54-8.04,3.34-7.91.5.28-6.26-.31-9.59-3.61-14.29-2.84-4.05,2.51-9.32,5.86-9.7,5.16-.58,10.68,2.96,8.84,8.5-1.58,4.75-4.08,7.98-3.18,14.98Z"/><path class="cls-2" d="M374.94,816.07l75.23.03-.02,54.41-75.23-.03.02-54.41ZM409.35,832.54c.59-4.05.55-6.41.06-9.69-3.21-.49-5.73-.49-9.11.05-.99,3.51-1.01,6.73-.06,10.13,3.36.28,5.79.3,9.1-.49ZM415.68,822.64v10.57h10.02v-10.57h-10.02ZM431.52,822.45l-.08,10.73,10.25.08.08-10.73-10.25-.08ZM393.86,837.83h-10.13v10.36h10.13v-10.36ZM409.4,847.75c.52-2.92,1.06-7.16-.65-9.38-2.3-1.43-6.49-.87-8.72-.11l-.39,9.09c3.28,1.05,6.33,1.17,9.75.39ZM415.54,837.64l-.15,10.39,10.45.15.15-10.39-10.45-.15ZM441.68,837.72l-10.3.03.03,10.52,10.3-.03-.03-10.52ZM393.79,852.96h-10.04v10.28h10.04v-10.28ZM409.67,852.94l-9.89.04.04,10.29,9.89-.04-.04-10.29ZM415.71,852.87l-.08,10.38,9.99.08.08-10.38-9.99-.08Z"/><circle class="cls-2" cx="625.24" cy="624.19" r="6.65"/><path class="cls-2" d="M836.35,606.74c-12.94,1.12-12.47,12.72-13.48,13.88-.52.6-2.42.81-3.07.34-3.62-2.6,2.43-18.37,16.1-19,1.1-.05,1.53,1.04,1.76,1.52.42.88.24,3.13-1.31,3.26Z"/><path class="cls-2" d="M242.65,419.55c0,23.5-19.05,42.55-42.55,42.55s-42.55-19.05-42.55-42.55,19.05-42.55,42.55-42.55,42.55,19.05,42.55,42.55ZM175.05,445.92l29.31-13.76c4.34-2.04,7.41-5.19,9.19-9.63l11.68-29.07-29.41,13.99c-3.54,1.68-6.59,4.36-8.11,8.01l-12.65,30.44Z"/><circle class="cls-2" cx="412.76" cy="419.39" r="18.55"/><rect class="cls-2" x="409.52" y="582.73" width="6.29" height="54.22" transform="translate(-197.2696 1022.3594) rotate(-89.9867)"/><rect class="cls-2" x="385.53" y="623.71" width="36.06" height="5.89"/><path class="cls-2" d="M844.02,403.65l-35.35.09-.26-22.46h35c1.58,7.1.8,13.62.61,22.36Z"/><polygon class="cls-2" points="823.33 449.63 824.67 435.46 815.04 434.54 829.21 412.85 827.82 427.18 836.26 428.14 823.33 449.63"/><path class="cls-1" d="M631.01,832.6c2.2,4,2.48,8.4-.67,11.35-2.69,2.53-7.92,2.32-10.84-.89-3.08-3.37-1.88-7.1.64-11.27,3.75-6.22.09-19.34,4.82-20.13,5.44-.9,1.45,12.55,6.06,20.93Z"/><rect class="cls-1" x="431.39" y="837.73" width="10.3" height="10.52" transform="translate(-2.65 1.38)"/><rect class="cls-1" x="431.24" y="822.73" width="10.73" height="10.25" transform="translate(-394.6563 1257.9246) rotate(-89.5489)"/><rect class="cls-1" x="415.5" y="837.68" width="10.39" height="10.46" transform="translate(-428.0879 1251.6171) rotate(-89.188)"/><path class="cls-1" d="M409.4,847.75c-3.42.78-6.47.65-9.75-.39l.39-9.09c2.23-.77,6.42-1.32,8.72.11,1.71,2.22,1.17,6.46.65,9.38Z"/><rect class="cls-1" x="415.68" y="822.64" width="10.02" height="10.57"/><path class="cls-1" d="M409.35,832.54c-3.31.79-5.74.77-9.1.49-.95-3.4-.94-6.62.06-10.13,3.37-.54,5.9-.54,9.11-.05.49,3.28.53,5.63-.06,9.69Z"/><rect class="cls-1" x="383.73" y="837.83" width="10.13" height="10.36"/><rect class="cls-1" x="383.75" y="852.96" width="10.04" height="10.28"/><rect class="cls-1" x="399.8" y="852.96" width="9.89" height="10.29" transform="translate(-3.37 1.6) rotate(-.23)"/><rect class="cls-1" x="415.47" y="853.11" width="10.38" height="9.99" transform="translate(-440.7255 1271.996) rotate(-89.5489)"/><path class="cls-1" d="M175.05,445.92l12.65-30.44c1.52-3.66,4.57-6.33,8.11-8.01l29.41-13.99-11.68,29.07c-1.78,4.44-4.85,7.59-9.19,9.63l-29.31,13.76ZM205.84,419.54c0-3.08-2.5-5.59-5.59-5.59s-5.59,2.5-5.59,5.59,2.5,5.59,5.59,5.59,5.59-2.5,5.59-5.59Z"/><circle class="cls-2" cx="200.26" cy="419.54" r="5.59"/></svg>